<svg width="98" height="92" viewBox="0 0 98 92" fill="none" xmlns="http://www.w3.org/2000/svg">
<path d="M0 46.0147C0 49.2381 1.62025 52.2144 4.22846 54.7265C6.83669 57.2386 10.4608 59.3811 14.8591 61.1732C23.6559 64.7566 35.591 66.9154 48.7685 66.9154C61.9459 66.9154 73.881 64.7566 82.6778 61.1732C87.0762 59.3811 90.7003 57.2386 93.3085 54.7265C95.9167 52.2144 97.5369 49.2381 97.5369 46.0147C97.5369 42.7912 95.9167 39.8113 93.3085 37.2992C90.7003 34.7867 87.0762 32.6444 82.6778 30.8525C73.881 27.2691 61.9459 25.1139 48.7685 25.1139C35.591 25.1139 23.6559 27.2691 14.8591 30.8525C10.4608 32.6444 6.83669 34.7867 4.22846 37.2992C1.62025 39.8113 0 42.7912 0 46.0147ZM3.48686 46.0147C3.48686 43.9481 4.49964 41.8844 6.65056 39.8129C8.80147 37.7413 12.0643 35.7591 16.1756 34.0845C24.3984 30.7344 35.975 28.6005 48.7685 28.6005C61.5619 28.6005 73.1386 30.7344 81.3613 34.0845C85.4727 35.7591 88.7355 37.7413 90.8864 39.8129C93.0373 41.8844 94.0501 43.9481 94.0501 46.0147C94.0501 48.081 93.0373 50.141 90.8864 52.2128C88.7355 54.2842 85.4727 56.27 81.3613 57.9448C73.1386 61.2945 61.5619 63.4252 48.7685 63.4252C35.975 63.4252 24.3984 61.2945 16.1756 57.9448C12.0643 56.27 8.80147 54.2842 6.65056 52.2128C4.49964 50.141 3.48686 48.081 3.48686 46.0147Z" fill="url(#paint0_linear_230_218)"/>
<path d="M74.1913 90.0053C76.9991 88.3859 78.7247 85.4245 79.5298 81.825C80.335 78.2256 80.2924 73.8968 79.5438 69.0421C78.0479 59.3326 73.6872 47.494 66.8161 35.6051C59.9449 23.7163 51.8621 14.0239 44.1929 7.87522C40.3583 4.80072 36.627 2.5996 33.104 1.49639C29.5811 0.393347 26.1511 0.405482 23.3433 2.02494C20.5354 3.64458 18.8128 6.60409 18.0076 10.2036C17.2025 13.803 17.2451 18.1318 17.9937 22.9863C19.4895 32.6958 23.8504 44.5345 30.7215 56.4234C37.5926 68.3123 45.6753 78.0045 53.3444 84.1531C57.1791 87.2278 60.9105 89.4288 64.4334 90.532C67.9564 91.6352 71.3835 91.6248 74.1913 90.0053ZM72.4449 86.9835C70.6863 87.9978 68.3908 88.1176 65.4723 87.2037C62.5539 86.2898 59.1279 84.3243 55.5272 81.4374C48.3259 75.6639 40.4294 66.2529 33.7419 54.6815C27.0542 43.1099 22.844 31.5727 21.4394 22.4556C20.7372 17.8973 20.7461 13.9506 21.413 10.9688C22.0801 7.98708 23.3316 6.06099 25.0902 5.04661C26.8488 4.03257 29.1444 3.9128 32.0628 4.82634C34.9812 5.74023 38.4103 7.70437 42.0108 10.5909C49.2121 16.3646 57.1056 25.7773 63.7932 37.3488C70.4808 48.9202 74.6941 60.4556 76.0987 69.5725C76.801 74.1312 76.7889 78.0795 76.1219 81.0613C75.4549 84.043 74.2035 85.9691 72.4449 86.9835Z" fill="url(#paint1_linear_230_218)"/>
<path d="M23.3462 90.0051C20.5382 88.3855 18.8128 85.424 18.0075 81.8244C17.2023 78.2248 17.2433 73.8991 17.9918 69.0442C19.4875 59.3344 23.8503 47.4925 30.7215 35.6031C37.5927 23.7138 45.6754 14.0213 53.3448 7.87227C57.1795 4.79777 60.9091 2.59941 64.4321 1.4962C67.9552 0.393162 71.3852 0.405122 74.1932 2.02476C77.0011 3.64422 78.7237 6.60394 79.5289 10.2036C80.3339 13.803 80.2931 18.1291 79.5445 22.984C78.0486 32.6936 73.6878 44.5326 66.8166 56.422C59.9454 68.3112 51.8607 78.0067 44.1915 84.1555C40.3568 87.2304 36.627 89.4286 33.104 90.5318C29.5811 91.635 26.1541 91.6246 23.3462 90.0051ZM25.0927 86.9833C26.8512 87.9975 29.1451 88.1201 32.0636 87.2061C34.9822 86.2925 38.4098 84.3236 42.0106 81.437C49.212 75.6634 57.1084 66.2517 63.7962 54.6798C70.4838 43.1081 74.6926 31.5738 76.0972 22.4565C76.7994 17.8977 76.7921 13.948 76.125 10.966C75.458 7.98417 74.2065 6.05826 72.448 5.04387C70.6894 4.02966 68.3938 3.90972 65.4753 4.8236C62.5567 5.73749 59.126 7.70429 55.5253 10.5914C48.3239 16.3651 40.4321 25.775 33.7444 37.3469C27.0567 48.9188 22.8434 60.4544 21.4388 69.5717C20.7365 74.1302 20.7466 78.0817 21.4138 81.0637C22.0808 84.0453 23.3341 85.9689 25.0927 86.9833Z" fill="url(#paint2_linear_230_218)"/>
<g clip-path="url(#clip0_230_218)">
<path fill-rule="evenodd" clip-rule="evenodd" d="M58.5917 45.8368C59.525 52.6342 54.8583 56.8895 49.0833 56.8895C43.0167 56.8895 38 52.6342 38 46.5C38 40.3105 43.1333 36.0553 49.0833 36.0553C51.9417 36.0553 54.45 36.9395 56.2583 38.4868L53.575 41.3053C52.4667 40.5868 50.95 40.0342 49.375 40.0342C45.4667 40.0342 42.6667 42.7421 42.6667 46.5C42.6667 50.2579 45.4083 52.9658 49.0833 52.9658C51.8833 52.9658 53.8667 51.9711 54.45 49.429H49.4333V45.8368H58.5917ZM78.7167 56.6132H73.9917L69.4417 49.8711H66.35V56.6132H61.9167V36.3316H69.3833C74.1667 36.3316 77.3167 39.0947 77.3167 43.2395C77.3167 46.0026 75.9167 48.0474 73.525 49.0974L78.7167 56.6132ZM66.2917 40.2V46.2237H69.0917C71.25 46.2237 72.825 45.3947 72.825 43.2395C72.825 41.0842 71.25 40.2 69.0917 40.2H66.2917ZM85.8333 52.7447H94.9333V56.6132H81.4V36.3316H94.6417V40.2H85.8333V44.5105H92.4833V48.3237H85.8333V52.7447ZM102.575 52.7447H111.617V56.6132H98.1417V36.3316H111.325V40.2553H102.575V44.5105H109.225V48.3237H102.575V52.7447ZM128.825 36.3868H133.317V56.6684H129.875L119.317 44.0684V56.6684H114.825V36.3868H118.267L128.825 48.9868V36.3868ZM141.425 36.3868V56.6132H136.933V36.3868H141.425ZM157.175 36.3868H161.667V49.2632C161.667 54.1816 157.875 57.0553 153.383 57.0553C148.892 57.0553 145.1 54.1816 145.1 49.2632V36.3868H149.592V49.3184C149.592 52.2474 151.633 53.1316 153.383 53.1316C155.133 53.1316 157.175 52.2474 157.175 49.3184V36.3868ZM172.342 36.0553C176.075 36.0553 178.467 38.2658 179.575 40.2553L176.308 42.079C175.142 40.5316 173.975 39.7579 172.342 39.7579C170.825 39.7579 169.717 40.5868 169.717 41.7474C169.717 42.9079 170.417 43.5158 172.108 44.1237L173.567 44.6211C178.292 46.2237 180.158 48.2132 180.158 50.9763C180.158 55.0658 176.075 57.1105 172.458 57.1105C168.608 57.1105 165.575 54.9 164.583 52.0816L167.967 50.3684C168.725 51.8605 170.008 53.2421 172.458 53.2421C174.208 53.2421 175.55 52.5237 175.55 51.0316C175.55 49.5947 174.617 48.9316 172.283 48.1026L171 47.6605C167.85 46.6105 165.283 45.1184 165.283 41.5816C165.283 38.3763 168.492 36.0553 172.342 36.0553Z" fill="url(#paint3_linear_230_218)"/>
</g>
<defs>
<linearGradient id="paint0_linear_230_218" x1="0" y1="25.1139" x2="97.5369" y2="25.1139" gradientUnits="userSpaceOnUse">
<stop stop-color="#905E26"/>
<stop offset="0.5" stop-color="#F5EC9B"/>
<stop offset="1" stop-color="#905E26"/>
</linearGradient>
<linearGradient id="paint1_linear_230_218" x1="17.418" y1="0.729599" x2="80.1195" y2="0.729599" gradientUnits="userSpaceOnUse">
<stop stop-color="#905E26"/>
<stop offset="0.5" stop-color="#F5EC9B"/>
<stop offset="1" stop-color="#905E26"/>
</linearGradient>
<linearGradient id="paint2_linear_230_218" x1="17.417" y1="0.729355" x2="80.1193" y2="0.729355" gradientUnits="userSpaceOnUse">
<stop stop-color="#905E26"/>
<stop offset="0.5" stop-color="#F5EC9B"/>
<stop offset="1" stop-color="#905E26"/>
</linearGradient>
<linearGradient id="paint3_linear_230_218" x1="38.0315" y1="42.7178" x2="180.273" y2="42.7178" gradientUnits="userSpaceOnUse">
<stop stop-color="#905E26"/>
<stop offset="0.76" stop-color="#F5EC9B"/>
<stop offset="1" stop-color="#905E26"/>
</linearGradient>
<clipPath id="clip0_230_218">
<rect width="21" height="21" fill="white" transform="translate(38 36)"/>
</clipPath>
</defs>
</svg>
