<svg version="1.2" xmlns="http://www.w3.org/2000/svg" viewBox="0 0 794 773" width="794" height="773">
	<title>2759367-ai</title>
	<defs>
		<linearGradient id="g1" x2="1" gradientUnits="userSpaceOnUse" gradientTransform="matrix(-145.588,128.017,-5.481,-6.233,-527.625,-877.321)">
			<stop offset=".002" stop-color="#a32ac4" stop-opacity="0"/>
			<stop offset="1" stop-color="#ff4ac1" stop-opacity="1"/>
		</linearGradient>
		<linearGradient id="g2" x2="1" gradientUnits="userSpaceOnUse" gradientTransform="matrix(-145.588,128.017,-5.481,-6.233,-167.531,-320.647)">
			<stop offset=".002" stop-color="#a32ac4" stop-opacity="0"/>
			<stop offset="1" stop-color="#ff4ac1" stop-opacity="1"/>
		</linearGradient>
		<linearGradient id="g3" x2="1" gradientUnits="userSpaceOnUse" gradientTransform="matrix(-91.808,80.727,-6.683,-7.6,-299.791,-54.127)">
			<stop offset=".002" stop-color="#a32ac4" stop-opacity="0"/>
			<stop offset="1" stop-color="#ff4ac1" stop-opacity="1"/>
		</linearGradient>
		<linearGradient id="g4" x2="1" gradientUnits="userSpaceOnUse" gradientTransform="matrix(-66.495,58.47,-4.84,-5.505,294.03,-226.831)">
			<stop offset=".002" stop-color="#a32ac4" stop-opacity="0"/>
			<stop offset="1" stop-color="#ff4ac1" stop-opacity="1"/>
		</linearGradient>
		<linearGradient id="g5" x2="1" gradientUnits="userSpaceOnUse" gradientTransform="matrix(-66.495,58.47,-4.84,-5.505,346.993,90.288)">
			<stop offset=".002" stop-color="#a32ac4" stop-opacity="0"/>
			<stop offset="1" stop-color="#ff4ac1" stop-opacity="1"/>
		</linearGradient>
		<linearGradient id="g6" x2="1" gradientUnits="userSpaceOnUse" gradientTransform="matrix(-66.495,58.47,-4.84,-5.505,64.244,200.86)">
			<stop offset=".002" stop-color="#a32ac4" stop-opacity="0"/>
			<stop offset="1" stop-color="#ff4ac1" stop-opacity="1"/>
		</linearGradient>
		<linearGradient id="g7" x2="1" gradientUnits="userSpaceOnUse" gradientTransform="matrix(-78.047,68.628,-6.532,-7.428,-151.801,-876.198)">
			<stop offset=".002" stop-color="#a32ac4" stop-opacity="0"/>
			<stop offset="1" stop-color="#ff4ac1" stop-opacity="1"/>
		</linearGradient>
		<clipPath clipPathUnits="userSpaceOnUse" id="cp1">
			<path d="m793.89 775.28h-793.57v-774.97h793.57z"/>
		</clipPath>
		<linearGradient id="g8" x2="1" gradientUnits="userSpaceOnUse" gradientTransform="matrix(650.693,1452.314,-1125.092,504.085,811.377,321.683)">
			<stop offset="0" stop-color="#ffffff" stop-opacity="0"/>
			<stop offset=".918" stop-color="#ffffff" stop-opacity="1"/>
		</linearGradient>
		<clipPath clipPathUnits="userSpaceOnUse" id="cp2">
			<path d="m548.6 311.52c34.3 58.9 14.35 134.46-44.55 168.75-58.9 34.3-134.46 14.36-168.76-44.54-34.3-58.91-14.35-134.46 44.55-168.76 58.91-34.3 134.46-14.36 168.76 44.55z"/>
		</clipPath>
		<linearGradient id="g9" x2="1" gradientUnits="userSpaceOnUse" gradientTransform="matrix(253.784,-15.432,8.924,146.765,269.946,239.449)">
			<stop offset="0" stop-color="#ffffff" stop-opacity="1"/>
			<stop offset="1" stop-color="#ffffff" stop-opacity="0"/>
		</linearGradient>
		<linearGradient id="g10" x2="1" gradientUnits="userSpaceOnUse" gradientTransform="matrix(183.862,-11.18,4.861,79.945,290.26,381.557)">
			<stop offset="0" stop-color="#ffffff" stop-opacity="1"/>
			<stop offset="1" stop-color="#ffffff" stop-opacity="0"/>
		</linearGradient>
		<linearGradient id="g11" x2="1" gradientUnits="userSpaceOnUse" gradientTransform="matrix(254.384,-15.469,5.903,97.073,386.351,361.758)">
			<stop offset="0" stop-color="#ffffff" stop-opacity="1"/>
			<stop offset="1" stop-color="#ffffff" stop-opacity="0"/>
		</linearGradient>
		<linearGradient id="g12" x2="1" gradientUnits="userSpaceOnUse" gradientTransform="matrix(141.043,-314.197,314.198,141.043,214.326,460.198)">
			<stop offset="0" stop-color="#e54bbd"/>
			<stop offset=".99" stop-color="#762fc8"/>
		</linearGradient>
		<linearGradient id="g13" x2="1" gradientUnits="userSpaceOnUse" gradientTransform="matrix(414.412,0,0,246.922,234.749,250.165)">
			<stop offset="0" stop-color="#8e2ec3"/>
			<stop offset=".994" stop-color="#712ec3"/>
		</linearGradient>
		<radialGradient id="g14" cx="0" cy="0" r="1" gradientUnits="userSpaceOnUse" gradientTransform="matrix(73.701,-50.089,50.089,73.701,81.22,291.636)">
			<stop offset=".002" stop-color="#a42ac7"/>
			<stop offset="1" stop-color="#470767"/>
		</radialGradient>
		<clipPath clipPathUnits="userSpaceOnUse" id="cp3">
			<path d="m153.99 266.1q0.72 1.05 1.36 2.13c4.88 7.97 7.3 16.78 7.46 25.57 0.32 16.67-7.52 33.17-22.35 43.25-6.91 4.69-14.57 7.46-22.34 8.44-7.84 0.99-15.79 0.12-23.2-2.46-10-3.47-19-10.08-25.41-19.51-3.74-5.51-6.27-11.48-7.61-17.61l-0.01-0.01c-1.29-5.78-1.54-11.7-0.81-17.48 1.77-14.04 9.35-27.28 21.96-35.85l0.41-0.28c4.15-2.76 8.55-4.83 13.08-6.25q5.05-1.57 10.19-2.07c10.99-1.06 22.13 1.45 31.61 7.22 6.05 3.67 11.42 8.68 15.66 14.91z"/>
		</clipPath>
		<radialGradient id="g15" cx="0" cy="0" r="1" gradientUnits="userSpaceOnUse" gradientTransform="matrix(148.871,-101.176,101.176,148.871,749.351,566.195)">
			<stop offset=".002" stop-color="#a42ac7"/>
			<stop offset="1" stop-color="#470767"/>
		</radialGradient>
		<clipPath clipPathUnits="userSpaceOnUse" id="cp4">
			<path d="m896.34 514.62c0.95 1.4 1.9 2.85 2.75 4.3 9.86 16.09 14.75 33.9 15.08 51.64 0.64 33.68-15.21 67.01-45.17 87.37-13.95 9.48-29.43 15.08-45.12 17.04-15.83 2-31.89 0.24-46.86-4.96-20.2-7.01-38.38-20.37-51.33-39.42-7.55-11.11-12.65-23.19-15.37-35.57l-0.02-0.02c-2.6-11.68-3.11-23.63-1.63-35.29 3.58-28.36 18.88-55.11 44.36-72.43l0.83-0.56c8.39-5.57 17.27-9.75 26.41-12.62 6.79-2.12 13.67-3.5 20.59-4.19 22.21-2.14 44.7 2.93 63.85 14.59 12.22 7.41 23.07 17.53 31.63 30.12z"/>
		</clipPath>
		<radialGradient id="g16" cx="0" cy="0" r="1" gradientUnits="userSpaceOnUse" gradientTransform="matrix(20.991,-14.266,14.266,20.991,153.801,62.921)">
			<stop offset=".002" stop-color="#a42ac7"/>
			<stop offset="1" stop-color="#470767"/>
		</radialGradient>
		<clipPath clipPathUnits="userSpaceOnUse" id="cp5">
			<path d="m174.53 55.65q0.2 0.3 0.39 0.6c1.38 2.27 2.07 4.79 2.12 7.29 0.09 4.75-2.14 9.45-6.37 12.32-1.96 1.33-4.15 2.12-6.36 2.4-2.23 0.28-4.5 0.03-6.61-0.7-2.85-0.99-5.41-2.87-7.23-5.56-1.07-1.57-1.79-3.27-2.17-5.01v-0.01c-0.37-1.64-0.44-3.33-0.24-4.97 0.51-4 2.67-7.77 6.26-10.22l0.12-0.08q1.78-1.17 3.72-1.78 1.44-0.44 2.9-0.58c3.13-0.31 6.31 0.41 9.01 2.05 1.72 1.05 3.25 2.47 4.46 4.25z"/>
		</clipPath>
		<radialGradient id="g17" cx="0" cy="0" r="1" gradientUnits="userSpaceOnUse" gradientTransform="matrix(20.992,-14.266,14.266,20.992,745.64,393.381)">
			<stop offset=".002" stop-color="#a42ac7"/>
			<stop offset="1" stop-color="#470767"/>
		</radialGradient>
		<clipPath clipPathUnits="userSpaceOnUse" id="cp6">
			<path d="m766.37 386.11q0.2 0.3 0.38 0.6c1.39 2.27 2.08 4.79 2.13 7.29 0.09 4.75-2.14 9.45-6.37 12.32-1.97 1.33-4.15 2.12-6.36 2.4-2.23 0.28-4.5 0.03-6.61-0.7-2.85-0.99-5.41-2.87-7.24-5.56-1.06-1.57-1.78-3.27-2.16-5.01l-0.01-0.01c-0.36-1.64-0.43-3.33-0.23-4.97 0.51-4 2.67-7.77 6.26-10.22l0.12-0.08q1.78-1.17 3.72-1.78 1.44-0.44 2.9-0.58c3.13-0.31 6.31 0.41 9.01 2.05 1.72 1.05 3.25 2.47 4.46 4.25z"/>
		</clipPath>
		<clipPath clipPathUnits="userSpaceOnUse" id="cp7">
			<path d="m501.21 0.31c0 12.34-3.48 23.86-9.54 33.64-11.27 18.27-31.48 30.43-54.53 30.43-5.34 0-10.53-0.66-15.49-1.89-8.93-2.21-17.12-6.3-24.14-11.82-14.89-11.75-24.45-29.93-24.45-50.36q0-0.48 0.02-0.92c0.12-8.89 2.04-17.34 5.43-24.99q2.45-5.52 5.82-10.41c4.89-7.07 11.14-13.13 18.41-17.75q4.04-2.6 8.47-4.56h0.02c7.91-3.51 16.67-5.45 25.91-5.45 14.8 0 28.4 5 39.25 13.42q0.04 0.02 0.04 0.04c11.24 8.74 19.5 21.14 22.96 35.43 1.2 4.86 1.82 9.96 1.82 15.19z"/>
		</clipPath>
		<radialGradient id="g18" cx="0" cy="0" r="1" gradientUnits="userSpaceOnUse" gradientTransform="matrix(111.8,0,0,111.8,407.695,-24.517)">
			<stop offset="0" stop-color="#6cdbc8"/>
			<stop offset="1" stop-color="#416673"/>
		</radialGradient>
		<radialGradient id="g19" cx="0" cy="0" r="1" gradientUnits="userSpaceOnUse" gradientTransform="matrix(111.8,0,0,111.8,407.695,-24.517)">
			<stop offset="0" stop-color="#6cd9c8"/>
			<stop offset="1" stop-color="#477880"/>
		</radialGradient>
		<clipPath clipPathUnits="userSpaceOnUse" id="cp8">
			<path d="m241.89 793.89c0 41.91-11.82 81-32.39 114.22-38.27 62.01-106.87 103.28-185.11 103.28-18.11 0-35.74-2.23-52.55-6.41-30.34-7.52-58.14-21.4-81.95-40.15-50.55-39.85-83-101.57-83-170.94 0-1.06 0-2.12 0.06-3.11 0.41-30.16 6.93-58.85 18.46-84.83 5.52-12.46 12.11-24.28 19.75-35.33 16.57-23.98 37.79-44.56 62.48-60.25 9.17-5.88 18.7-11.05 28.75-15.46h0.06c26.86-11.93 56.61-18.52 87.94-18.52 50.26 0 96.4 16.99 133.26 45.56 0.06 0.06 0.12 0.06 0.12 0.12 38.15 29.68 66.19 71.77 77.94 120.27 4.06 16.52 6.18 33.8 6.18 51.55z"/>
		</clipPath>
		<radialGradient id="g20" cx="0" cy="0" r="1" gradientUnits="userSpaceOnUse" gradientTransform="matrix(379.493,0,0,379.493,-75.544,709.634)">
			<stop offset="0" stop-color="#6cdbc8"/>
			<stop offset="1" stop-color="#416673"/>
		</radialGradient>
		<radialGradient id="g21" cx="0" cy="0" r="1" gradientUnits="userSpaceOnUse" gradientTransform="matrix(379.493,0,0,379.493,-75.544,709.634)">
			<stop offset="0" stop-color="#6cd9c8"/>
			<stop offset="1" stop-color="#477880"/>
		</radialGradient>
		<clipPath clipPathUnits="userSpaceOnUse" id="cp9">
			<path d="m453.37 678.76c0 4.46-1.25 8.62-3.45 12.16-4.07 6.6-11.37 10.99-19.7 10.99q-2.9-0.01-5.6-0.68c-3.23-0.8-6.19-2.28-8.72-4.27-5.38-4.25-8.84-10.82-8.84-18.2q0-0.17 0.01-0.33c0.04-3.21 0.74-6.27 1.97-9.03q0.88-2 2.1-3.77c1.76-2.55 4.02-4.74 6.65-6.41q1.46-0.94 3.06-1.65h0.01c2.86-1.27 6.02-1.97 9.36-1.97 5.35 0 10.26 1.81 14.19 4.85q0.01 0.01 0.01 0.02c4.06 3.16 7.04 7.64 8.3 12.8q0.65 2.65 0.65 5.49z"/>
		</clipPath>
		<radialGradient id="g22" cx="0" cy="0" r="1" gradientUnits="userSpaceOnUse" gradientTransform="matrix(40.4,0,0,40.4,419.58,669.788)">
			<stop offset="0" stop-color="#6cdbc8"/>
			<stop offset="1" stop-color="#416673"/>
		</radialGradient>
		<radialGradient id="g23" cx="0" cy="0" r="1" gradientUnits="userSpaceOnUse" gradientTransform="matrix(40.4,0,0,40.4,419.58,669.788)">
			<stop offset="0" stop-color="#6cd9c8"/>
			<stop offset="1" stop-color="#477880"/>
		</radialGradient>
	</defs>
	<style>
		tspan { white-space:pre } 
		.s0 { fill: url(#g1) } 
		.s1 { fill: url(#g2) } 
		.s2 { fill: url(#g3) } 
		.s3 { opacity: .6;fill: url(#g4) } 
		.s4 { opacity: .6;fill: url(#g5) } 
		.s5 { opacity: .6;fill: url(#g6) } 
		.s6 { opacity: .6;fill: url(#g7) } 
		.s7 { mix-blend-mode: overlay;fill: url(#g8) } 
		.s8 { opacity: .1;mix-blend-mode: screen;fill: #ffffff } 
		.s9 { opacity: .9;mix-blend-mode: overlay;fill: url(#g9) } 
		.s10 { opacity: .9;mix-blend-mode: overlay;fill: url(#g10) } 
		.s11 { opacity: .9;mix-blend-mode: overlay;fill: url(#g11) } 
		.s12 { fill: url(#g12) } 
		.s13 { fill: url(#g13) } 
		.s14 { fill: url(#g14) } 
		.s15 { opacity: .2;fill: #ffd26e } 
		.s16 { fill: url(#g15) } 
		.s17 { fill: url(#g16) } 
		.s18 { fill: url(#g17) } 
		.s19 { opacity: .5;mix-blend-mode: multiply;fill: #00dccf } 
		.s20 { fill: url(#g18) } 
		.s21 { opacity: .3;mix-blend-mode: multiply;fill: url(#g19) } 
		.s22 { fill: url(#g20) } 
		.s23 { opacity: .3;mix-blend-mode: multiply;fill: url(#g21) } 
		.s24 { fill: url(#g22) } 
		.s25 { opacity: .3;mix-blend-mode: multiply;fill: url(#g23) } 
		.s26 { opacity: .4;mix-blend-mode: multiply;fill: #1c0036 } 
		.s27 { fill: #f7fbf7;stroke: #4240ff;stroke-miterlimit:10;stroke-width: .8 } 
		.s28 { fill: #f7fafb } 
	</style>
	<g id="OBJECTS">
		<g id="&lt;Group&gt;">
			<g id="&lt;Group&gt;">
				<g id="&lt;Group&gt;">
					<g id="&lt;Group&gt;">
						<g id="&lt;Group&gt;" style="opacity: .6">
							<path id="&lt;Path&gt;" class="s0" d="m188 166.3c-1.4 1.3-1.4 3.6 0 4.9 1.4 1.4 3.6 1.4 5 0 5.1-5.1 118.6-112.8 118.6-112.8 0 0-118.5 102.7-123.6 107.9z"/>
							<path id="&lt;Path&gt;" class="s1" d="m548.1 722.9c-1.4 1.4-1.4 3.6 0 5 1.3 1.4 3.6 1.4 5 0 5.1-5.1 118.6-112.9 118.6-112.9 0 0-118.5 102.8-123.6 107.9z"/>
							<path id="&lt;Path&gt;" class="s2" d="m59.3 496c-1.7 1.7-1.7 4.4 0 6 1.6 1.7 4.3 1.7 6 0 6.2-6.2 70.3-72.6 70.3-72.6 0 0-70.2 60.4-76.3 66.6z"/>
							<path id="&lt;Path&gt;" class="s3" d="m554.1 171.6c-1.2 1.2-1.2 3.2 0 4.4 1.2 1.2 3.1 1.2 4.4 0 4.4-4.5 50.9-52.7 50.9-52.7 0 0-50.8 43.8-55.3 48.3z"/>
							<path id="&lt;Path&gt;" class="s4" d="m607 488.7c-1.2 1.2-1.2 3.2 0 4.4 1.2 1.2 3.2 1.2 4.4 0 4.5-4.5 50.9-52.6 50.9-52.6 0 0-50.8 43.7-55.3 48.2z"/>
							<path id="&lt;Path&gt;" class="s5" d="m324.3 599.3c-1.2 1.2-1.2 3.2 0 4.4 1.2 1.2 3.2 1.2 4.4 0 4.4-4.5 50.9-52.7 50.9-52.7 0 0-50.8 43.8-55.3 48.3z"/>
							<path id="&lt;Path&gt;" class="s6" d="m723.3 243.1c-0.5 0.5-0.5 1.3 0 1.8 0.5 0.5 1.3 0.5 1.8 0 1.8-1.8 60.6-64.7 60.6-64.7 0 0-60.6 61.2-62.4 62.9z"/>
						</g>
						<g id="&lt;Clip Group&gt;" clip-path="url(#cp1)">
							<g id="&lt;Group&gt;">
								<path id="&lt;Path&gt;" class="s7" d="m729.5 1092.9c55.5-94 136-195.3 94.2-330-75.9-245.1-439.3-135-702.3-365.3-406.2-355.7-426.6-1.7-375.2 164.3 66.5 214.9 5.9 283.9-36.4 412-27.3 82.9-25.2 180.1 9.2 275 62.8 173.4 173.8 231.6 275.4 243.1 115.6 13.2 229.5 56.5 332.5 127.5 58.7 40.5 128.3 47.1 187.8 25 222-82.3 101.9-360.6 214.8-551.6z"/>
							</g>
							<g id="&lt;Group&gt;">
								<g id="&lt;Group&gt;">
									<g id="&lt;Group&gt;">
										<path id="&lt;Path&gt;" class="s8" d="m517.7 503.7c-71.7 41.8-164.1 17.4-205.9-54.3-41.7-71.8-17.4-164.1 54.4-205.9 71.7-41.8 164.1-17.4 205.8 54.4 41.8 71.7 17.4 164.1-54.3 205.8z"/>
										<g id="&lt;Clip Group&gt;" clip-path="url(#cp2)">
											<path id="&lt;Path&gt;" class="s9" d="m277.6 365.2c0 0 57.3-28.6 92.6-39.1 51-15.2 70-12.7 101.7-54.2 31.7-41.6 49.6-47.7 49.6-47.7l2.8 9.8c0 0-25.9 13.9-43.8 50.7-17.9 36.9-22.5 55.5-79.9 49-57.4-6.6-119 52.3-119 52.3z"/>
											<path id="&lt;Path&gt;" class="s10" d="m298.7 419.4c0 0 57.6-33.1 147.9-45.6 90.3-12.4-65.2 9.4-117.2 66.4-52.1 57.1-30.7-20.8-30.7-20.8z"/>
											<path id="&lt;Path&gt;" class="s11" d="m618.1 347.7c0 0-69.2 16.5-97.5 44.1-28.4 27.5-61 54.1-111.1 60.9-50.2 6.7 20.4 9.4 59.5-6.5 39.1-15.9 53.3-53.3 133-60.6 79.8-7.3 16.1-37.9 16.1-37.9z"/>
											<path id="&lt;Path&gt;" class="s12" d="m548.6 311.5c34.3 58.9 14.4 134.5-44.6 168.8-58.9 34.3-134.4 14.3-168.7-44.6-34.3-58.9-14.4-134.4 44.5-168.7 58.9-34.3 134.5-14.4 168.8 44.5z"/>
										</g>
									</g>
									<path id="&lt;Compound Path&gt;" class="s13" d="m532 289.1q4.9 5.3 9.3 11.3c20.7-7.9 61.7-24.1 64.2-19.8 2.5 4.4-33.8 28.6-50.8 42.8-22.6 18.6-59.3 43.5-102.1 68.5-42.8 24.9-82.6 44.5-110 54.9-20.7 7.9-55.1 20.8-57.7 16.4-2.5-4.3 27.3-25.2 44.3-39.3q-3-6.8-5.2-13.7c-58.5 40.5-94.6 73.5-88.6 83.7 5.9 10.2 52.4-4.9 116.5-35.8 32-15.4 68.3-34.7 106.2-56.8 37.9-22 72.6-44.1 101.7-64.3 58.6-40.5 94.7-73.4 88.7-83.7-5.9-10.2-52.4 4.9-116.5 35.8z"/>
								</g>
								<g id="&lt;Group&gt;">
									<path id="&lt;Path&gt;" class="s8" d="m140.3 352.3c-31.7 15.7-70.3 2.7-86-29-15.7-31.7-2.7-70.2 28.9-85.9 31.7-15.8 70.3-2.8 86 28.9 15.7 31.7 2.7 70.2-28.9 86z"/>
									<path id="&lt;Path&gt;" class="s14" d="m154 266.1q0.7 1.1 1.4 2.1c4.8 8 7.3 16.8 7.4 25.6 0.3 16.7-7.5 33.2-22.3 43.2-7 4.7-14.6 7.5-22.4 8.5-7.8 1-15.8 0.1-23.2-2.5-10-3.4-19-10.1-25.4-19.5-3.7-5.5-6.3-11.5-7.6-17.6-1.3-5.8-1.6-11.7-0.8-17.5 1.8-14 9.3-27.3 21.9-35.8l0.5-0.3c4.1-2.8 8.5-4.8 13-6.3q5.1-1.5 10.2-2c11-1.1 22.2 1.4 31.6 7.2 6.1 3.7 11.5 8.7 15.7 14.9z"/>
									<g id="&lt;Clip Group&gt;" clip-path="url(#cp3)" style="mix-blend-mode: overlay">
										<path id="&lt;Compound Path&gt;" fill-rule="evenodd" class="s15" d="m59.6 310.3c2.4 1.7 4.6 3.4 7 5.1 12.1 8.2 27.4 11.7 41.9 9.5 5.3-0.8 10.5-2.3 15.8-2.5 10.3-0.3 19.9 4.4 29.2 9.1-5.3 6.3-12 11.3-19.5 14.6-6.6-2.8-13.1-6-19.5-9.3-9-4.8-12.5-2.8-22.6-4.4-6.7-1.1-19.1-7.6-26-7.3-2.8-4.6-4.9-9.5-6.3-14.8zm109-31.6c2 5 3.5 10.2 4.3 15.6-5.8 3.7-11.6 7.6-18 10.2-9.5 3.9-20.3 4.7-30.3 2.3-20.9-5-36.7-22.9-57.5-28.4-9.3-2.4-18.9-2.1-28.5-1.8 5.5-12.6 14.5-23 25.5-30.3 19.7 7.3 33.9 27.8 54.2 35 16.1 5.8 33.6 2.3 50.3-2.6zm-23-24.6c-4 0.3-8.1 0.3-12.2-0.3-8.9-1.3-17.3-5.3-25-10q-0.8-0.6-1.7-1.1c5.1-0.5 10.2-0.3 15.5 0.7 8.9 1.7 16.8 5.5 23.4 10.7z"/>
									</g>
								</g>
								<g id="&lt;Group&gt;">
									<path id="&lt;Path&gt;" class="s8" d="m869.3 690c-64.8 32.1-143.6 5.6-175.7-59.1-32.1-64.8-5.6-143.6 59.2-175.7 64.7-32.1 143.5-5.6 175.6 59.1 32.1 64.8 5.6 143.6-59.1 175.7z"/>
									<path id="&lt;Path&gt;" class="s16" d="m896.3 514.6c1 1.4 1.9 2.9 2.8 4.3 9.8 16.1 14.7 33.9 15.1 51.7 0.6 33.6-15.2 67-45.2 87.3-13.9 9.5-29.4 15.1-45.1 17.1-15.9 2-31.9 0.2-46.9-5-20.2-7-38.4-20.4-51.3-39.4-7.6-11.1-12.7-23.2-15.4-35.6-2.6-11.7-3.1-23.6-1.6-35.3 3.6-28.4 18.8-55.1 44.3-72.4l0.9-0.6c8.3-5.5 17.2-9.7 26.4-12.6 6.8-2.1 13.6-3.5 20.6-4.2 22.2-2.1 44.7 2.9 63.8 14.6 12.2 7.4 23.1 17.5 31.6 30.1z"/>
									<g id="&lt;Clip Group&gt;" clip-path="url(#cp4)" style="mix-blend-mode: overlay">
										<path id="&lt;Compound Path&gt;" fill-rule="evenodd" class="s15" d="m705.7 604c4.7 3.2 9.3 6.8 14.1 10.1 24.4 16.7 55.3 23.7 84.6 19.3 10.7-1.6 21.2-4.7 32-5 20.8-0.6 40.1 8.8 58.9 18.3-10.7 12.7-24.2 22.8-39.3 29.5-13.4-5.6-26.5-12.1-39.3-18.8-18.3-9.6-25.4-5.7-45.8-8.9-13.4-2.1-38.7-15.3-52.4-14.7-5.7-9.2-10.1-19.2-12.8-29.8zm220.1-63.9c4.1 10 7 20.6 8.7 31.5-11.7 7.5-23.3 15.4-36.2 20.6-19.4 7.9-41.1 9.6-61.4 4.7-42.2-10.2-74.1-46.4-116.1-57.4-18.7-4.8-38.1-4.4-57.5-3.7 11.1-25.3 29.2-46.4 51.5-61.2 39.7 14.8 68.4 56.2 109.4 70.8 32.6 11.6 67.8 4.6 101.6-5.3zm-46.3-49.6c-8.3 0.5-16.5 0.5-24.7-0.7-18.1-2.7-34.9-10.7-50.5-20.3q-1.7-1-3.4-2.2c10.1-1 20.6-0.6 31.2 1.4 17.9 3.5 34 11.1 47.4 21.8z"/>
									</g>
								</g>
								<g id="&lt;Group&gt;">
									<path id="&lt;Path&gt;" class="s17" d="m174.5 55.6q0.2 0.3 0.4 0.7c1.4 2.2 2.1 4.7 2.1 7.2 0.1 4.8-2.1 9.5-6.3 12.4-2 1.3-4.2 2.1-6.4 2.4-2.2 0.2-4.5 0-6.6-0.7-2.8-1-5.4-2.9-7.2-5.6-1.1-1.6-1.8-3.3-2.2-5-0.4-1.7-0.4-3.3-0.2-5 0.5-4 2.6-7.8 6.2-10.2l0.1-0.1q1.8-1.2 3.8-1.8 1.4-0.4 2.9-0.6c3.1-0.3 6.3 0.5 9 2.1 1.7 1 3.2 2.5 4.4 4.2z"/>
									<g id="&lt;Clip Group&gt;" clip-path="url(#cp5)" style="mix-blend-mode: overlay">
										<path id="&lt;Compound Path&gt;" fill-rule="evenodd" class="s15" d="m147.6 68.2c0.7 0.5 1.4 1 2 1.5 3.5 2.3 7.8 3.3 12 2.7 1.5-0.2 3-0.7 4.5-0.7 2.9-0.1 5.6 1.2 8.3 2.6-1.5 1.8-3.4 3.2-5.6 4.1-1.9-0.8-3.7-1.7-5.5-2.6-2.6-1.4-3.6-0.8-6.5-1.3-1.9-0.3-5.4-2.1-7.4-2q-1.2-2-1.8-4.3zm31.1-9q0.9 2.2 1.2 4.5c-1.6 1-3.3 2.2-5.1 2.9-2.7 1.1-5.8 1.3-8.7 0.6-5.9-1.4-10.4-6.5-16.3-8-2.7-0.7-5.4-0.7-8.1-0.6 1.5-3.5 4.1-6.5 7.2-8.6 5.6 2.1 9.7 7.9 15.5 10 4.6 1.6 9.5 0.6 14.3-0.8zm-6.5-7c-1.2 0.1-2.4 0.1-3.5-0.1-2.6-0.3-5-1.5-7.1-2.8q-0.3-0.2-0.5-0.3 2.1-0.2 4.4 0.2c2.5 0.5 4.8 1.5 6.7 3z"/>
									</g>
								</g>
								<g id="&lt;Group&gt;">
									<path id="&lt;Path&gt;" class="s18" d="m766.4 386.1q0.2 0.3 0.4 0.6c1.3 2.3 2 4.8 2.1 7.3 0.1 4.7-2.2 9.4-6.4 12.3-2 1.4-4.1 2.1-6.3 2.4-2.3 0.3-4.5 0.1-6.7-0.7-2.8-1-5.4-2.9-7.2-5.5-1.1-1.6-1.8-3.3-2.2-5.1-0.3-1.6-0.4-3.3-0.2-4.9 0.5-4 2.7-7.8 6.3-10.2l0.1-0.1q1.8-1.2 3.7-1.8 1.4-0.5 2.9-0.6c3.1-0.3 6.3 0.4 9 2.1 1.7 1 3.3 2.4 4.5 4.2z"/>
									<g id="&lt;Clip Group&gt;" clip-path="url(#cp6)" style="mix-blend-mode: overlay">
										<path id="&lt;Compound Path&gt;" fill-rule="evenodd" class="s15" d="m739.5 398.7c0.7 0.5 1.3 1 2 1.4 3.4 2.4 7.8 3.4 11.9 2.8 1.5-0.3 3-0.7 4.5-0.7 3-0.1 5.7 1.2 8.3 2.5-1.5 1.8-3.4 3.2-5.5 4.2-1.9-0.8-3.8-1.7-5.6-2.7-2.5-1.3-3.5-0.8-6.4-1.2-1.9-0.3-5.5-2.2-7.4-2.1q-1.2-1.9-1.8-4.2zm31-9q0.9 2.1 1.3 4.4c-1.7 1.1-3.3 2.2-5.2 3-2.7 1.1-5.8 1.3-8.6 0.6-6-1.4-10.5-6.5-16.4-8.1-2.6-0.7-5.4-0.6-8.1-0.5 1.6-3.6 4.1-6.5 7.3-8.6 5.6 2 9.6 7.9 15.4 9.9 4.6 1.7 9.6 0.7 14.3-0.7zm-6.5-7c-1.2 0.1-2.3 0.1-3.5-0.1-2.5-0.4-4.9-1.5-7.1-2.8q-0.3-0.2-0.5-0.4 2.2-0.2 4.4 0.2c2.5 0.5 4.8 1.6 6.7 3.1z"/>
									</g>
								</g>
								<g id="&lt;Group&gt;">
									<path id="&lt;Path&gt;" class="s8" d="m478.4 82.1c-45.2 22.8-100.4 4.6-123.1-40.6-22.7-45.1-4.5-100.3 40.6-123 45.1-22.8 100.3-4.5 123.1 40.6 22.7 45.1 4.5 100.3-40.6 123z"/>
									<g id="&lt;Group&gt;">
										<g id="&lt;Clip Group&gt;" clip-path="url(#cp7)">
											<g id="&lt;Group&gt;">
												<path id="&lt;Path&gt;" class="s19" d="m403.2 96.2c41.3-13.2 82.1-28.3 122.3-44.4 4.9-8.6 8.6-17.9 10.8-27.6-56.1 19.2-113.4 34.8-171.4 46.9 10.7 11.3 23.9 19.8 38.3 25.1z"/>
												<path id="&lt;Path&gt;" class="s19" d="m434.5-33.9c26.3-9.8 51.9-21.3 77.2-33.6-13.6-14.5-31-24.5-50-29.1-30.1 11.6-59.9 23.7-89.6 36q-9.6 4-19.2 7.9c-9.2 14.5-14.7 31.2-15.7 48.4 32.9-8.3 65.5-17.7 97.3-29.6z"/>
												<path id="&lt;Path&gt;" class="s19" d="m538.8-3.7c-0.6-11.2-3-22.4-7.5-33.4-34.1 14.2-68.1 28.8-102 43.5-27.6 12-55.8 24.2-84.6 33.7q0 0 0 0c2.3 5.5 5 10.6 8.1 15.5q10.6-2.9 21.1-5.9c55.4-15.5 111.2-32.4 164.9-53.4z"/>
											</g>
											<path id="&lt;Path&gt;" class="s20" d="m501.2 0.3c0 12.4-3.5 23.9-9.5 33.7-11.3 18.2-31.5 30.4-54.6 30.4-5.3 0-10.5-0.7-15.4-1.9-9-2.2-17.2-6.3-24.2-11.8-14.9-11.8-24.4-30-24.4-50.4q0-0.5 0-0.9c0.1-8.9 2-17.3 5.4-25q2.5-5.5 5.8-10.4c4.9-7.1 11.2-13.1 18.4-17.8q4.1-2.6 8.5-4.5c7.9-3.5 16.7-5.5 25.9-5.5 14.8 0 28.4 5 39.3 13.5q0 0 0 0c11.3 8.7 19.5 21.1 23 35.4 1.2 4.9 1.8 10 1.8 15.2z"/>
										</g>
										<path id="&lt;Path&gt;" class="s21" d="m501.2 0.3c0 12.4-3.5 23.9-9.5 33.7-11.3 18.2-31.5 30.4-54.6 30.4-5.3 0-10.5-0.7-15.4-1.9-9-2.2-17.2-6.3-24.2-11.8-14.9-11.8-24.4-30-24.4-50.4q0-0.5 0-0.9c0.1-8.9 2-17.3 5.4-25q2.5-5.5 5.8-10.4c4.9-7.1 11.2-13.1 18.4-17.8q4.1-2.6 8.5-4.5c7.9-3.5 16.7-5.5 25.9-5.5 14.8 0 28.4 5 39.3 13.5q0 0 0 0c11.3 8.7 19.5 21.1 23 35.4 1.2 4.9 1.8 10 1.8 15.2z"/>
									</g>
								</g>
								<g id="&lt;Group&gt;">
									<path id="&lt;Path&gt;" class="s8" d="m141 1025.5c-127.7 64.3-283.9 12.7-348.2-115-64.3-127.7-12.8-283.9 114.9-348.2 127.7-64.3 284-12.8 348.3 114.9 64.3 127.7 12.7 284-115 348.3z"/>
									<g id="&lt;Group&gt;">
										<g id="&lt;Clip Group&gt;" clip-path="url(#cp8)">
											<g id="&lt;Group&gt;">
												<path id="&lt;Path&gt;" class="s19" d="m-90.7 1119.5c140.2-44.7 278.6-96.2 415-150.9 16.8-29.2 29.2-60.7 36.8-93.5-190.5 64.9-385 118.1-582 159 36.5 38.4 81.3 67.5 130.2 85.4z"/>
												<path id="&lt;Path&gt;" class="s19" d="m15.4 677.9c89.4-33.4 176.3-72.4 262.1-114.1-46.1-49.2-105.4-83.3-169.8-98.9-102 39.3-203.4 80.4-304.2 122.2-21.7 9-43.4 18-65.2 26.9-31.2 49.2-49.7 105.8-53.1 164.3 111.7-28.2 222.3-60.1 330.2-100.4z"/>
												<path id="&lt;Path&gt;" class="s19" d="m369.5 780.4c-1.9-38-10.2-76.2-25.6-113.4-115.8 48.2-231.1 97.7-346.1 147.7-93.8 40.7-189.5 82-287.1 114.3q0.1 0 0.1 0c7.7 18.6 16.9 36 27.2 52.4q35.9-9.8 71.7-19.8c188.1-52.7 377.4-109.9 559.8-181.2z"/>
											</g>
											<path id="&lt;Path&gt;" class="s22" d="m241.9 793.9c0 41.9-11.8 81-32.4 114.2-38.3 62-106.9 103.3-185.1 103.3-18.1 0-35.8-2.2-52.6-6.4-30.3-7.5-58.1-21.4-81.9-40.2-50.6-39.8-83-101.5-83-170.9 0-1.1 0-2.1 0-3.1 0.5-30.2 7-58.9 18.5-84.8 5.5-12.5 12.1-24.3 19.8-35.4 16.5-24 37.8-44.5 62.4-60.2 9.2-5.9 18.7-11.1 28.8-15.5 26.9-11.9 56.7-18.5 88-18.5 50.2 0 96.4 17 133.2 45.5 0.1 0.1 0.2 0.1 0.2 0.2 38.1 29.7 66.2 71.7 77.9 120.2 4.1 16.6 6.2 33.8 6.2 51.6z"/>
										</g>
										<path id="&lt;Path&gt;" class="s23" d="m241.9 793.9c0 41.9-11.8 81-32.4 114.2-38.3 62-106.9 103.3-185.1 103.3-18.1 0-35.8-2.2-52.6-6.4-30.3-7.5-58.1-21.4-81.9-40.2-50.6-39.8-83-101.5-83-170.9 0-1.1 0-2.1 0-3.1 0.5-30.2 7-58.9 18.5-84.8 5.5-12.5 12.1-24.3 19.8-35.4 16.5-24 37.8-44.5 62.4-60.2 9.2-5.9 18.7-11.1 28.8-15.5 26.9-11.9 56.7-18.5 88-18.5 50.2 0 96.4 17 133.2 45.5 0.1 0.1 0.2 0.1 0.2 0.2 38.1 29.7 66.2 71.7 77.9 120.2 4.1 16.6 6.2 33.8 6.2 51.6z"/>
									</g>
								</g>
								<g id="&lt;Group&gt;">
									<path id="&lt;Path&gt;" class="s8" d="m445.1 708.3c-16.3 8.2-36.2 1.7-44.5-14.6-8.2-16.4-1.6-36.3 14.7-44.5 16.3-8.2 36.3-1.6 44.5 14.7 8.2 16.3 1.6 36.2-14.7 44.4z"/>
									<g id="&lt;Group&gt;">
										<g id="&lt;Clip Group&gt;" clip-path="url(#cp9)">
											<g id="&lt;Group&gt;">
												<path id="&lt;Path&gt;" class="s19" d="m418 713.4c14.9-4.7 29.6-10.2 44.2-16 1.7-3.2 3-6.5 3.9-10-20.3 6.9-41 12.6-62 16.9 3.9 4.1 8.7 7.2 13.9 9.1z"/>
												<path id="&lt;Path&gt;" class="s19" d="m429.3 666.4c9.5-3.5 18.7-7.7 27.9-12.1-4.9-5.3-11.3-8.9-18.1-10.6-10.9 4.2-21.7 8.6-32.4 13q-3.5 1.5-6.9 2.9c-3.4 5.2-5.3 11.3-5.7 17.5 11.9-3 23.7-6.4 35.2-10.7z"/>
												<path id="&lt;Path&gt;" class="s19" d="m467 677.3c-0.2-4-1.1-8.1-2.8-12-12.3 5.1-24.6 10.4-36.8 15.7-10 4.3-20.2 8.7-30.6 12.1q0 0 0 0 1.3 3 2.9 5.6 3.9-1 7.7-2.1c20-5.6 40.1-11.7 59.6-19.3z"/>
											</g>
											<path id="&lt;Path&gt;" class="s24" d="m453.4 678.8c0 4.4-1.3 8.6-3.5 12.1-4 6.6-11.4 11-19.7 11q-2.9 0-5.6-0.7c-3.2-0.8-6.2-2.2-8.7-4.2-5.4-4.3-8.8-10.9-8.8-18.2q0-0.2 0-0.4c0-3.2 0.7-6.2 1.9-9q0.9-2 2.1-3.8c1.8-2.5 4.1-4.7 6.7-6.4q1.4-0.9 3.1-1.6c2.8-1.3 6-2 9.3-2 5.4 0 10.3 1.8 14.2 4.9q0 0 0 0c4.1 3.1 7.1 7.6 8.3 12.8q0.7 2.6 0.7 5.5z"/>
										</g>
										<path id="&lt;Path&gt;" class="s25" d="m453.4 678.8c0 4.4-1.3 8.6-3.5 12.1-4 6.6-11.4 11-19.7 11q-2.9 0-5.6-0.7c-3.2-0.8-6.2-2.2-8.7-4.2-5.4-4.3-8.8-10.9-8.8-18.2q0-0.2 0-0.4c0-3.2 0.7-6.2 1.9-9q0.9-2 2.1-3.8c1.8-2.5 4.1-4.7 6.7-6.4q1.4-0.9 3.1-1.6c2.8-1.3 6-2 9.3-2 5.4 0 10.3 1.8 14.2 4.9q0 0 0 0c4.1 3.1 7.1 7.6 8.3 12.8q0.7 2.6 0.7 5.5z"/>
									</g>
								</g>
							</g>
						</g>
						<g id="&lt;Group&gt;">
							<path id="&lt;Path&gt;" class="s26" d="m273.6 538.2c-2.4-2.4-6.3-2.4-8.6 0-2.4 2.4-2.4 6.2 0 8.6 2.3 2.4 6.2 2.4 8.6 0 2.4-2.4 2.4-6.2 0-8.6z"/>
							<path id="&lt;Path&gt;" class="s26" d="m313.1 175.9c-2.4-2.4-6.2-2.4-8.6 0-2.4 2.4-2.4 6.3 0 8.6 2.4 2.4 6.2 2.4 8.6 0 2.4-2.3 2.4-6.2 0-8.6z"/>
							<path id="&lt;Path&gt;" class="s26" d="m619.8 559.3c-2.4-2.4-6.3-2.4-8.6 0-2.4 2.4-2.4 6.2 0 8.6 2.3 2.4 6.2 2.4 8.6 0 2.4-2.4 2.4-6.2 0-8.6z"/>
							<path id="&lt;Path&gt;" class="s26" d="m93.2 397.9c-4.8-4.8-12.5-4.8-17.3 0-4.8 4.7-4.8 12.5 0 17.2 4.8 4.8 12.5 4.8 17.3 0 4.8-4.7 4.8-12.5 0-17.2z"/>
							<path id="&lt;Compound Path&gt;" fill-rule="evenodd" class="s26" d="m722.7 131.6c-0.3 10.6-8 19.9-18.9 21.8-10.9 1.8-21.3-4.3-25.2-14.2-10.8 0.9-18.2 0.5-18.5-1.4-0.3-1.8 6.5-4.7 17-7.5 0.3-10.6 8-19.9 18.9-21.7 10.9-1.9 21.3 4.3 25.2 14.2 10.8-0.9 18.2-0.5 18.5 1.3 0.3 1.9-6.5 4.7-17 7.5zm-0.7-6.3q0.2 0.9 0.4 1.8 0.1 0.9 0.2 1.8c2.3-0.9 3.7-1.8 3.6-2.4-0.2-0.7-1.7-1.1-4.2-1.2zm-44.2 11.3q-0.2-0.9-0.4-1.8-0.1-0.9-0.2-1.8c-2.3 0.9-3.7 1.8-3.6 2.5 0.2 0.6 1.7 1 4.2 1.1z"/>
						</g>
						<g id="&lt;Group&gt;" style="opacity: .7">
							<path id="&lt;Path&gt;" class="s27" d="m480.9 728.4c0 2-1.6 3.7-3.6 3.7-2 0-3.7-1.7-3.7-3.7 0-2 1.7-3.7 3.7-3.7 2 0 3.6 1.7 3.6 3.7z"/>
							<path id="&lt;Path&gt;" class="s27" d="m654.3 360.5c0 2-1.7 3.6-3.7 3.6-2 0-3.6-1.6-3.6-3.6 0-2.1 1.6-3.7 3.6-3.7 2 0 3.7 1.6 3.7 3.7z"/>
							<path id="&lt;Path&gt;" class="s27" d="m243.7 228.4c0 2-1.7 3.7-3.7 3.7-2 0-3.7-1.7-3.7-3.7 0-2 1.7-3.6 3.7-3.6 2 0 3.7 1.6 3.7 3.6z"/>
							<path id="&lt;Path&gt;" class="s27" d="m671.7 714.1c0 2-1.7 3.6-3.7 3.6-2 0-3.7-1.6-3.7-3.6 0-2.1 1.7-3.7 3.7-3.7 2 0 3.7 1.6 3.7 3.7z"/>
							<path id="&lt;Path&gt;" class="s27" d="m236.3 377.9c0 1.4-1.1 2.5-2.4 2.5-1.4 0-2.5-1.1-2.5-2.5 0-1.4 1.1-2.5 2.5-2.5 1.3 0 2.4 1.1 2.4 2.5z"/>
							<path id="&lt;Path&gt;" class="s27" d="m134 494c0 1.4-1.1 2.5-2.5 2.5-1.4 0-2.5-1.1-2.5-2.5 0-1.4 1.1-2.5 2.5-2.5 1.4 0 2.5 1.1 2.5 2.5z"/>
							<path id="&lt;Path&gt;" class="s27" d="m551.3 74.9c0 1.4-1.1 2.5-2.5 2.5-1.4 0-2.5-1.1-2.5-2.5 0-1.3 1.1-2.4 2.5-2.4 1.4 0 2.5 1.1 2.5 2.4z"/>
							<path id="&lt;Path&gt;" class="s27" d="m67.8 152.1c0 0.7-0.5 1.3-1.3 1.3-0.7 0-1.3-0.6-1.3-1.3 0-0.7 0.6-1.3 1.3-1.3 0.8 0 1.3 0.6 1.3 1.3z"/>
							<path id="&lt;Path&gt;" class="s27" d="m743 293.1c0 0.7-0.6 1.3-1.3 1.3-0.7 0-1.3-0.6-1.3-1.3 0-0.7 0.6-1.3 1.3-1.3 0.7 0 1.3 0.6 1.3 1.3z"/>
							<path id="&lt;Path&gt;" class="s27" d="m211 41.5c0 0.7-0.6 1.3-1.3 1.3-0.7 0-1.3-0.6-1.3-1.3 0-0.7 0.6-1.3 1.3-1.3 0.7 0 1.3 0.6 1.3 1.3z"/>
							<path id="&lt;Path&gt;" class="s27" d="m413 155c0 0.7-0.6 1.3-1.3 1.3-0.8 0-1.3-0.6-1.3-1.3 0-0.7 0.5-1.3 1.3-1.3 0.7 0 1.3 0.6 1.3 1.3z"/>
							<path id="&lt;Path&gt;" class="s27" d="m304.1 677.3c0 1.4-1.1 2.5-2.5 2.5-1.3 0-2.5-1.1-2.5-2.5 0-1.4 1.2-2.5 2.5-2.5 1.4 0 2.5 1.1 2.5 2.5z"/>
							<path id="&lt;Path&gt;" class="s27" d="m494.9 569.7c0 1.4-1.1 2.5-2.5 2.5-1.4 0-2.5-1.1-2.5-2.5 0-1.4 1.1-2.5 2.5-2.5 1.4 0 2.5 1.1 2.5 2.5z"/>
							<path id="&lt;Path&gt;" class="s27" d="m742.8 72.5c0 1.3-1.1 2.4-2.5 2.4-1.3 0-2.4-1.1-2.4-2.4 0-1.4 1.1-2.5 2.4-2.5 1.4 0 2.5 1.1 2.5 2.5z"/>
						</g>
					</g>
				</g>
			</g>
		</g>
	</g>
	<g id="DESIGNED BY FREEPIK">
		<g id="&lt;Group&gt;">
			<g id="&lt;Group&gt;">
				<g id="&lt;Group&gt;">
					<path id="&lt;Path&gt;" class="s28" d="m622.2 828.9q-1.3 1.4-2.2 2.9l-1-0.4c-0.1-0.6-0.7-1-1.3-1-0.7 0.1-1.1 0.7-1.1 1.4 0.1 0.6 0.7 1.1 1.4 1q0.2 0 0.4-0.1l0.9 0.5q-0.8 1.7-1.1 3.5l1.5 0.2c0.4-2.6 1.7-5 3.6-6.9z"/>
					<path id="&lt;Path&gt;" class="s28" d="m633.1 824.3q-0.5 0-1 0.1l-0.1-1.3c0.4-0.3 0.6-0.8 0.5-1.3-0.1-0.8-0.8-1.3-1.6-1.2-0.8 0.1-1.3 0.8-1.2 1.6 0 0.5 0.3 0.9 0.8 1.1l0.1 1.2q-2.1 0.4-4.1 1.3l0.7 1.4q2.8-1.3 5.9-1.3 1.5 0 3 0.3l0.3-1.5q-1.6-0.4-3.3-0.4z"/>
					<path id="&lt;Path&gt;" class="s28" d="m646.3 829.4c0.7 0 1.2-0.7 1.1-1.3-0.1-0.7-0.7-1.1-1.3-1.1-0.7 0.1-1.1 0.6-1.1 1.3l-0.8 0.7q-1.3-1.3-2.9-2.3l-0.8 1.3c2.3 1.4 4.1 3.4 5.2 5.8l1.3-0.6q-0.7-1.7-1.8-3.1l0.8-0.7q0.2 0.1 0.3 0z"/>
					<path id="&lt;Path&gt;" class="s28" d="m632 844.8q-1.1 0-2.3 0c-1.7 0-3.4-0.1-4.9-0.3-0.8-0.2-1.7-0.3-2.6-0.6 2.1 3.7 6.2 6.2 10.8 6.2 5.7 0 10.5-3.8 11.9-9q-2 1.4-4.9 2.3c-2.4 0.7-5.1 1.2-8 1.4z"/>
					<path id="&lt;Compound Path&gt;" fill-rule="evenodd" class="s28" d="m645.2 837.8q0.1 0.5 0.1 1.1c-2.8 2.4-7.6 4-13.3 4.3-5.3 0.4-9.4-0.5-10.7-1.4q-0.3-1.3-0.3-2.5c0-6.6 5.4-11.9 12.1-11.9 6.2 0 11.3 4.4 12.1 10.4zm-12.7-1.1c0-2-1.6-3.7-3.7-3.7-2 0-3.7 1.7-3.7 3.7 0 2 1.7 3.7 3.7 3.7 2.1 0 3.7-1.7 3.7-3.7zm8.5-0.8c0-1.5-1.2-2.8-2.7-2.8-1.5 0-2.7 1.3-2.7 2.8 0 1.5 1.2 2.7 2.7 2.7 1.5 0 2.7-1.2 2.7-2.7z"/>
				</g>
				<path id="&lt;Compound Path&gt;" class="s28" d="m665.1 831.1c-0.5-0.2-1.6-0.6-2.7-0.5-1.1 0.2-1.7 0.7-1.7 2v1.8h4.5v3.4h-4.5v10.9h-3.9v-10.9h-2.6v-3.4h2.6v-1.8c0-3.4 1.8-5.6 5.2-5.6 1.3 0 2.3 0.3 3.2 0.6z"/>
				<path id="&lt;Compound Path&gt;" class="s28" d="m674.6 837.8q-0.6-0.1-1.1-0.1c-1.8 0-3 1.1-3 3.2v7.8h-3.9v-14.3h3.8v1.5c0.9-1.3 2.2-1.9 4-1.9 0.8 0 1.7 0.2 2.2 0.7z"/>
				<path id="&lt;Compound Path&gt;" fill-rule="evenodd" class="s28" d="m689.9 841.5c0 0.5 0 1-0.1 1.3h-10.2c0.5 2.1 1.9 3 3.7 3 1.3 0 2.6-0.5 3.7-1.4l2.2 2.5c-1.6 1.5-3.7 2.2-6.1 2.2-4.4 0-7.4-3-7.4-7.5 0-4.5 2.9-7.6 7.2-7.6 4.1 0 7 3.1 7 7.5zm-10.2-1.3h6.3c-0.3-1.8-1.5-2.9-3.1-2.9-1.8 0-2.9 1.1-3.2 2.9z"/>
				<path id="&lt;Compound Path&gt;" fill-rule="evenodd" class="s28" d="m705.2 841.5c0 0.5 0 1-0.1 1.3h-10.1c0.4 2.1 1.8 3 3.6 3 1.3 0 2.6-0.5 3.7-1.4l2.2 2.5c-1.6 1.5-3.7 2.2-6.1 2.2-4.4 0-7.4-3-7.4-7.5 0-4.5 2.9-7.6 7.2-7.6 4.2 0 7 3.1 7 7.5zm-10.2-1.3h6.3c-0.3-1.8-1.4-2.9-3.1-2.9-1.8 0-2.9 1.1-3.2 2.9z"/>
				<path id="&lt;Compound Path&gt;" fill-rule="evenodd" class="s28" d="m721.9 841.5c0 4.3-3 7.6-7 7.6-1.9 0-3.2-0.8-4.2-1.9v7.4h-3.8v-20.2h3.8v1.6c0.9-1.2 2.3-2 4.2-2 4 0 7 3.2 7 7.5zm-11.4 0c0 2.3 1.5 4 3.7 4 2.3 0 3.7-1.8 3.7-4 0-2.2-1.4-3.9-3.7-3.9-2.2 0-3.7 1.7-3.7 3.9z"/>
				<path id="&lt;Compound Path&gt;" class="s28" d="m728.1 829.7c0 1.4-1.1 2.4-2.5 2.4-1.4 0-2.4-1-2.4-2.4 0-1.4 1-2.5 2.4-2.5 1.4 0 2.5 1.1 2.5 2.5zm-0.5 19h-3.9v-14.3h3.9z"/>
				<path id="&lt;Compound Path&gt;" class="s28" d="m734 839.5l5.4-5.1h4.8l-7 6.7 7 7.6h-4.7l-5.5-5.8v5.8h-3.8v-21.3h3.8z"/>
			</g>
			<g id="&lt;Group&gt;">
				<path id="&lt;Compound Path&gt;" fill-rule="evenodd" class="s28" d="m470.8 848.6v-2.1c-1.1 1.4-2.8 2.4-4.8 2.4-3.7 0-6.3-2.8-6.3-7.4 0-4.5 2.6-7.4 6.3-7.4 1.9 0 3.6 0.9 4.8 2.5v-7.6h2.2v19.6zm0-3.8v-6.5c-0.8-1.2-2.5-2.2-4.3-2.2-2.8 0-4.5 2.3-4.5 5.4 0 3.2 1.7 5.5 4.5 5.5 1.8 0 3.5-1 4.3-2.2z"/>
				<path id="&lt;Compound Path&gt;" fill-rule="evenodd" class="s28" d="m475.8 841.5c0-4.1 3-7.4 7-7.4 4.3 0 6.8 3.3 6.8 7.6v0.5h-11.5c0.2 2.7 2.1 4.9 5.1 4.9 1.6 0 3.3-0.6 4.4-1.8l1.1 1.5c-1.5 1.4-3.4 2.1-5.7 2.1-4.2 0-7.2-3-7.2-7.4zm7-5.6c-3.1 0-4.5 2.6-4.7 4.7h9.3c0-2.1-1.4-4.7-4.6-4.7z"/>
				<path id="&lt;Compound Path&gt;" class="s28" d="m491.2 846.7l1.1-1.6c1 1.1 2.7 2.1 4.7 2.1 2.1 0 3.3-1.1 3.3-2.5 0-3.4-8.7-1.3-8.7-6.5 0-2.2 1.9-4.1 5.2-4.1 2.4 0 4.1 0.9 5.3 2l-1.1 1.6c-0.8-1.1-2.4-1.8-4.2-1.8-1.9 0-3.1 0.9-3.1 2.2 0 3.1 8.8 1.1 8.8 6.6 0 2.3-2 4.2-5.6 4.2-2.3 0-4.3-0.7-5.7-2.2z"/>
				<path id="&lt;Compound Path&gt;" class="s28" d="m504.9 831c0-0.9 0.7-1.5 1.5-1.5 0.8 0 1.5 0.6 1.5 1.5 0 0.8-0.7 1.4-1.5 1.4-0.8 0-1.5-0.6-1.5-1.4zm0.4 17.6v-14.2h2.2v14.2z"/>
				<path id="&lt;Compound Path&gt;" fill-rule="evenodd" class="s28" d="m511.1 852.2l1.1-1.6c1.2 1.4 2.6 1.9 4.6 1.9 2.4 0 4.6-1.1 4.6-4.2v-2.1c-1 1.5-2.8 2.6-4.8 2.6-3.7 0-6.3-2.8-6.3-7.4 0-4.5 2.6-7.3 6.3-7.3 1.9 0 3.6 0.9 4.8 2.5v-2.2h2.2v13.8c0 4.7-3.3 6.1-6.8 6.1-2.4 0-4-0.4-5.7-2.1zm10.3-7.7v-6.2c-0.8-1.2-2.5-2.2-4.2-2.2-2.9 0-4.6 2.2-4.6 5.3 0 3.1 1.7 5.4 4.6 5.4 1.7 0 3.4-1.1 4.2-2.3z"/>
				<path id="&lt;Compound Path&gt;" class="s28" d="m536.8 848.6v-9.3c0-2.5-1.3-3.2-3.2-3.2-1.7 0-3.3 1-4.2 2.1v10.4h-2.2v-14.2h2.2v2.1c1-1.2 3-2.4 5.1-2.4 2.9 0 4.5 1.5 4.5 4.6v9.9z"/>
				<path id="&lt;Compound Path&gt;" fill-rule="evenodd" class="s28" d="m541.8 841.5c0-4.1 3-7.4 7-7.4 4.3 0 6.8 3.3 6.8 7.6v0.5h-11.5c0.2 2.7 2.1 4.9 5.1 4.9 1.6 0 3.3-0.6 4.4-1.8l1.1 1.5c-1.4 1.4-3.4 2.1-5.7 2.1-4.2 0-7.2-3-7.2-7.4zm7-5.6c-3 0-4.5 2.6-4.7 4.7h9.3c0-2.1-1.4-4.7-4.6-4.7z"/>
				<path id="&lt;Compound Path&gt;" fill-rule="evenodd" class="s28" d="m568.7 848.6v-2.1c-1.1 1.4-2.8 2.4-4.8 2.4-3.7 0-6.3-2.8-6.3-7.4 0-4.5 2.6-7.4 6.3-7.4 1.9 0 3.6 0.9 4.8 2.5v-7.6h2.2v19.6zm0-3.8v-6.5c-0.8-1.2-2.5-2.2-4.3-2.2-2.8 0-4.5 2.3-4.5 5.4 0 3.2 1.7 5.5 4.5 5.5 1.8 0 3.5-1 4.3-2.2z"/>
				<path id="&lt;Compound Path&gt;" fill-rule="evenodd" class="s28" d="m581.3 848.6v-19.6h2.2v7.6c1.2-1.6 2.9-2.5 4.8-2.5 3.7 0 6.3 2.9 6.3 7.4 0 4.6-2.6 7.4-6.3 7.4-2 0-3.7-1-4.8-2.4v2.1zm6.5-1.6c2.8 0 4.5-2.3 4.5-5.5 0-3.1-1.7-5.4-4.5-5.4-1.8 0-3.5 1-4.3 2.2v6.5c0.8 1.2 2.5 2.2 4.3 2.2z"/>
				<path id="&lt;Compound Path&gt;" class="s28" d="m597 852.1c0.3 0.2 0.9 0.3 1.2 0.3 1 0 1.6-0.4 2.1-1.5l1-2.2-6-14.3h2.4l4.7 11.6 4.7-11.6h2.4l-7.1 17.1c-0.8 2-2.2 2.8-4.1 2.8-0.5 0-1.2-0.1-1.6-0.2z"/>
			</g>
		</g>
	</g>
</svg>